<?xml version="1.0" standalone="no"?>
<!DOCTYPE svg PUBLIC "-//W3C//DTD SVG 20010904//EN"
 "http://www.w3.org/TR/2001/REC-SVG-20010904/DTD/svg10.dtd">
<svg version="1.0" xmlns="http://www.w3.org/2000/svg"
 width="499.000000pt" height="499.000000pt" viewBox="0 0 499.000000 499.000000"
 preserveAspectRatio="xMidYMid meet">
<metadata>
Created by potrace 1.16, written by Peter Selinger 2001-2019
</metadata>
<g transform="translate(0.000000,499.000000) scale(0.100000,-0.100000)"
fill="#FFCA28" stroke="none">
<path d="M2401 4095 c-165 -158 -253 -356 -255 -570 0 -55 3 -112 7 -127 6
-24 3 -28 -36 -47 -66 -32 -127 -90 -152 -143 -19 -41 -32 -53 -84 -80 -35
-18 -85 -56 -115 -88 -92 -96 -94 -170 -9 -261 l45 -48 -31 -38 c-103 -129
-104 -273 -2 -365 25 -24 57 -58 70 -76 12 -18 39 -41 60 -51 36 -19 37 -21
159 -354 67 -184 122 -340 122 -346 0 -7 -13 -2 -29 10 -40 29 -89 19 -141
-27 l-39 -36 -27 21 c-31 25 -52 26 -99 7 -19 -8 -35 -13 -35 -10 0 8 41 87
82 156 29 49 53 76 89 99 71 45 84 74 49 109 -41 41 -52 36 -359 -169 -83 -55
-114 -99 -119 -169 -3 -46 1 -66 21 -104 l24 -47 -27 -45 c-14 -25 -37 -58
-50 -73 l-24 -27 -8 29 c-4 17 -5 44 -2 62 4 23 1 36 -15 52 -28 28 -45 26
-83 -8 -30 -27 -33 -34 -32 -88 1 -73 32 -135 80 -158 65 -30 118 -12 188 66
41 46 49 51 57 36 30 -53 126 -58 206 -12 36 21 47 24 64 14 32 -17 95 -5 150
30 42 26 53 29 77 20 15 -6 43 -8 63 -5 29 5 38 2 44 -12 4 -9 31 -84 61 -165
29 -82 63 -161 74 -176 24 -34 77 -61 119 -61 45 0 106 34 129 72 10 18 55
131 98 251 l78 217 36 0 c23 0 49 9 70 25 18 13 37 22 42 19 21 -13 91 -4 124
15 19 12 44 21 55 21 11 0 31 12 45 27 19 20 27 24 36 15 25 -25 66 -14 98 27
l31 38 29 -28 c31 -31 74 -38 113 -18 12 6 48 36 80 67 49 49 57 61 57 94 0
43 -26 64 -66 54 -18 -5 -22 -3 -18 9 10 25 -16 73 -45 83 -20 7 -37 6 -62 -6
-19 -8 -54 -16 -79 -17 -68 -4 -123 -16 -142 -32 -9 -9 -35 -46 -58 -84 -22
-38 -42 -69 -43 -69 -2 0 -1 15 1 33 6 50 -21 68 -107 70 -59 2 -70 5 -65 17
3 8 49 134 101 280 53 146 100 270 105 276 5 7 25 15 45 19 96 18 153 75 153
154 0 52 -42 136 -106 211 -24 28 -44 53 -44 54 0 1 7 24 16 50 32 94 -7 217
-104 326 -41 46 -50 63 -56 109 -14 107 -64 177 -294 415 -227 234 -301 344
-303 451 -1 28 -4 61 -8 75 -7 24 -9 23 -80 -45z m95 -266 c48 -72 117 -151
289 -329 172 -178 214 -243 215 -328 0 -104 -65 -156 -305 -242 -132 -47 -186
-78 -204 -116 -24 -52 -13 -54 77 -9 50 26 131 55 192 70 159 39 216 70 278
149 l22 29 24 -22 c34 -32 84 -130 91 -177 8 -52 -29 -114 -130 -222 -43 -45
-73 -82 -69 -82 5 0 51 23 102 50 l92 49 37 -40 c60 -65 84 -104 90 -146 4
-34 2 -43 -21 -61 -36 -28 -109 -42 -221 -42 l-93 0 28 53 c53 100 49 104 -37
35 -138 -112 -285 -174 -432 -185 l-85 -6 23 37 c13 20 22 38 20 39 -2 2 -35
11 -74 21 -95 24 -199 75 -287 141 -40 30 -76 55 -80 55 -12 0 -38 -93 -38
-137 0 -24 7 -60 15 -80 8 -20 14 -38 12 -40 -2 -1 -21 14 -43 35 -49 48 -74
117 -74 201 l0 64 -23 -21 c-13 -12 -26 -19 -30 -16 -8 8 2 54 14 70 5 6 5 15
1 19 -4 5 -1 5 6 1 11 -6 16 4 13 26 -1 8 41 -4 99 -29 25 -11 104 -42 175
-68 147 -54 184 -73 238 -124 l38 -36 -6 30 c-12 51 -51 100 -110 139 -31 21
-69 51 -85 66 -27 27 -91 67 -215 135 -117 65 -152 109 -130 161 7 17 27 42
44 55 l31 24 64 -61 c41 -39 96 -77 154 -107 50 -26 93 -47 97 -47 4 0 -16 25
-43 56 -28 31 -65 86 -84 123 -29 58 -33 76 -33 141 0 64 5 83 28 123 32 54
66 90 120 127 l39 27 -1 110 c-2 120 10 210 41 318 12 39 22 77 23 85 0 8 9
28 20 43 l19 29 18 -48 c11 -27 39 -78 64 -115z m591 -1564 c3 -1 -162 -463
-191 -535 -8 -19 -19 -49 -26 -67 -12 -31 -12 -31 -31 -12 -37 37 -95 22 -164
-42 -39 -36 -47 -40 -58 -28 -7 8 -31 28 -55 44 -38 25 -47 27 -80 19 -26 -6
-44 -20 -60 -45 -22 -34 -26 -36 -53 -26 -21 8 -40 8 -71 0 -24 -7 -46 -9 -50
-5 -5 5 -218 579 -218 588 0 2 26 6 58 9 31 4 90 18 131 31 66 22 79 24 132
13 75 -15 286 -6 361 15 32 8 75 24 95 35 33 16 53 18 158 13 66 -2 121 -6
122 -7z m-1087 -467 c0 -7 -23 -29 -52 -48 -55 -38 -91 -95 -249 -395 -105
-199 -164 -258 -233 -235 -41 13 -66 56 -66 113 0 57 8 77 29 77 13 0 16 -8
13 -38 -5 -55 21 -112 51 -112 45 0 96 68 186 248 28 56 72 135 96 174 25 40
43 74 41 76 -3 2 -31 -14 -64 -37 -105 -71 -136 -127 -108 -194 15 -37 12 -47
-11 -47 -18 0 -43 59 -43 100 0 65 48 118 167 189 37 22 102 62 143 90 76 52
100 61 100 39z m1528 -61 c2 -17 -8 -48 -28 -82 -35 -61 -35 -94 0 -75 10 6
41 31 67 56 38 36 49 41 52 28 4 -23 -96 -120 -133 -130 -29 -7 -66 17 -66 44
0 8 16 44 35 79 62 109 -1 69 -95 -62 -34 -47 -65 -85 -69 -85 -22 0 -16 20
25 96 25 46 41 84 36 84 -14 0 -95 -90 -137 -153 -29 -44 -42 -56 -56 -52 -12
4 -32 -4 -52 -19 -43 -33 -92 -35 -108 -4 l-12 22 -19 -25 c-48 -59 -105 -75
-131 -36 l-15 22 -28 -27 c-30 -28 -92 -58 -119 -58 -8 0 -24 9 -35 20 -19 19
-20 19 -71 -15 -60 -41 -73 -43 -94 -12 -17 26 -8 68 25 117 33 49 34 53 13
42 -11 -6 -39 -36 -63 -67 -116 -150 -217 -203 -282 -147 -15 13 -21 11 -60
-22 -57 -49 -109 -65 -143 -42 -14 9 -25 21 -25 27 0 6 -19 -6 -42 -25 -126
-108 -243 -37 -159 96 48 75 135 128 174 106 24 -13 21 -38 -8 -73 -20 -25
-26 -27 -34 -15 -6 9 -6 19 1 27 5 7 8 18 5 25 -7 19 -112 -92 -121 -127 -17
-66 55 -65 132 1 24 20 50 50 58 68 9 17 35 50 58 74 69 73 126 91 126 40 0
-30 -20 -60 -88 -130 -60 -61 -63 -79 -10 -57 35 14 128 95 128 111 0 19 64
98 99 122 50 34 84 41 104 21 15 -14 15 -19 3 -44 -8 -15 -22 -33 -30 -40 -13
-11 -17 -10 -22 3 -3 9 -1 23 6 31 21 25 2 30 -28 8 -45 -33 -92 -102 -92
-134 0 -26 3 -29 33 -29 42 0 93 36 165 115 42 45 52 63 48 81 -8 32 10 73 36
83 34 12 51 2 44 -25 -6 -22 -4 -23 19 -14 42 16 42 -14 1 -90 -43 -80 -47
-106 -13 -89 30 16 97 80 97 95 0 21 60 94 102 124 48 35 74 38 83 10 9 -28
-9 -56 -83 -132 -36 -37 -63 -70 -60 -73 24 -24 135 57 193 140 61 86 159 149
180 115 3 -6 17 -7 30 -4 35 9 40 -13 10 -51 -33 -44 -59 -105 -48 -116 23
-23 138 67 181 143 44 78 69 106 81 89 7 -11 15 -9 41 10 l32 24 17 -21 17
-22 39 30 c49 35 79 34 83 -5z m-1092 -411 c15 -40 103 -44 150 -7 21 16 30
18 55 9 17 -6 48 -8 69 -4 l39 6 -38 -107 c-21 -60 -43 -119 -49 -133 -6 -14
-20 -52 -33 -85 -12 -33 -29 -68 -37 -77 -19 -23 -74 -23 -101 0 -12 10 -44
83 -80 181 l-60 164 32 32 c37 37 46 40 53 21z"/>
<path d="M2366 3687 c-5 -10 -6 -73 -3 -140 5 -123 26 -220 113 -522 34 -120
37 -125 42 -96 5 33 -13 123 -53 261 -57 193 -77 290 -84 405 -5 71 -10 104
-15 92z"/>
</g>
</svg>
